# Blender 4.0.1
# www.blender.org
mtllib untitled.mtl
o Cube
v -0.703883 -0.201887 0.197238
v -1.000000 0.201887 0.197238
v -0.703883 -0.201887 -0.195841
v -1.000000 0.201887 -0.195841
v 0.703837 -0.201887 0.197238
v 1.000000 0.201887 0.197238
v 1.000000 0.201887 -0.195841
v -1.000000 0.000000 0.197238
v -1.000000 0.000000 -0.195841
v 1.000000 0.000000 -0.195841
v 1.000000 0.000000 0.197238
v 0.697982 -0.201887 0.197238
v -0.697983 -0.201887 0.197238
v -0.700741 -0.201887 -0.195841
v 0.700741 -0.201887 -0.195841
v 0.703837 -0.201887 0.070534
vn -1.0000 -0.0000 -0.0000
vn -0.0000 -0.0000 -1.0000
vn 1.0000 -0.0000 -0.0000
vn -0.0000 -0.0000 1.0000
vn -0.0000 -1.0000 -0.0000
vn -0.0000 1.0000 -0.0000
vn -0.5633 -0.8262 -0.0000
vn 0.5633 -0.8263 -0.0000
vn 0.5592 -0.8290 -0.0065
vt 0.500000 0.000000
vt 0.625000 0.000000
vt 0.625000 0.250000
vt 0.500000 0.250000
vt 0.625000 0.500000
vt 0.500000 0.500000
vt 0.625000 0.750000
vt 0.500000 0.750000
vt 0.625000 1.000000
vt 0.500000 1.000000
vt 0.125000 0.500000
vt 0.162407 0.500000
vt 0.162752 0.750000
vt 0.125000 0.750000
vt 0.875000 0.500000
vt 0.875000 0.750000
vt 0.375000 0.750000
vt 0.375000 0.787752
vt 0.375000 0.250000
vt 0.375000 0.287407
vt 0.375000 0.000000
vt 0.375000 0.962248
vt 0.375000 1.000000
vt 0.375000 0.462593
vt 0.375000 0.669416
vt 0.337248 0.750000
vt 0.337593 0.500000
s 0
usemtl Material.001
f 8/1/1 2/2/1 4/3/1 9/4/1
f 9/4/2 4/3/2 7/5/2 10/6/2
f 10/6/3 7/5/3 6/7/3 11/8/3
f 11/8/4 6/7/4 2/9/4 8/10/4
f 3/11/5 14/12/5 13/13/5 1/14/5
f 7/5/6 4/15/6 2/16/6 6/7/6
f 5/17/4 11/8/4 12/18/4
f 3/19/2 9/4/2 14/20/2
f 1/21/7 8/1/7 9/4/7 3/19/7
f 12/18/4 11/8/4 8/10/4 13/22/4
f 13/22/4 8/10/4 1/23/4
f 14/20/2 9/4/2 10/6/2 15/24/2
f 16/25/8 10/6/8 11/8/8 5/17/8
f 12/26/5 15/27/5 16/25/5 5/17/5
f 10/6/9 16/25/9 15/24/9
f 13/13/5 14/12/5 15/27/5 12/26/5
